<svg height="100" viewBox="0 0 160 100" width="160" xmlns="http://www.w3.org/2000/svg" xmlns:xlink="http://www.w3.org/1999/xlink"><radialGradient id="a" cx="17.540918%" cy="17.466056%" gradientTransform="matrix(.61318 0 0 1 .067852 0)" r="93.287344%"><stop offset="0" stop-color="#9dd5f6"/><stop offset=".0711" stop-color="#98d3f5"/><stop offset=".1575" stop-color="#89cef3"/><stop offset=".2516" stop-color="#70c6ef"/><stop offset=".3514" stop-color="#4ebbea"/><stop offset=".4546" stop-color="#23ade3"/><stop offset=".5" stop-color="#0da6e0"/><stop offset="1" stop-color="#2e77bc"/></radialGradient><mask id="b" fill="#fff"><use fill="#fff" fill-rule="evenodd" xlink:href="#e"/></mask><mask id="c" fill="#fff"><rect fill="#fff" fill-rule="evenodd" height="100" rx="4" width="160"/></mask><mask id="d" fill="#fff"><path d="m0 0h160v100h-160z" fill="#fff" fill-rule="evenodd"/></mask><g fill="none" fill-rule="evenodd"><g mask="url(#b)"><rect id="e" fill="#fff" fill-rule="nonzero" height="100" mask="url(#c)" rx="4" stroke="#d6d6d6" stroke-width="1.5" width="160"/></g><path d="m-.5-.5h161v101h-161z" stroke="#ebebeb"/><g mask="url(#d)"><g fill-rule="nonzero" transform="translate(-2 -.146341)"><path d="m162.122322 0h-162.122322v100h162.122322v-33.0025515c.644016-.5721536.961999-1.3040436.961999-2.1988509 0-1.0241512-.317983-1.658503-.961999-2.1928429" fill="url(#a)"/><g fill="#fff"><path d="m16.8512648 35.7421161-3.0918996-7.4916007-3.0742284 7.4916007zm68.1141375-2.98315c-.6207739.3746649-1.3549861.3871349-2.2345585.3871349h-5.4877799v-4.1740295h5.5624551c.7872259 0 1.6086543.0351424 2.1422122.3389556.5860015.2737719.9485474.8564583.9485474 1.6613363 0 .8213159-.3448745 1.4822227-.9308763 1.7866027zm39.1492407 2.98315-3.126102-7.4916007-3.109001 7.4916007zm-72.9765832 8.1088629h-4.6310087l-.0171013-14.7179319-6.5503353 14.7179319h-3.9663416l-6.5674363-14.7309688v14.7309688h-9.1879127l-1.7357733-4.1916007h-9.40566802l-1.75344452 4.1916007h-4.90633846l8.0894445-18.7922019h6.7116567l7.6830057 17.7923392v-17.7923392h7.3729035l5.91189 12.748248 5.4307756-12.748248h7.5211144v18.7922019zm18.4573411 0h-15.0906819v-18.7922019h15.0906819v3.9132944h-10.5731109v3.3872895h10.3194427v3.8520783h-10.3194427v3.7528856h10.5731109zm21.2773312-13.7311061c0 2.9961869-2.0111031 4.54416-3.1831063 5.0089488.9884503.3740983 1.8326802 1.0350051 2.2345588 1.582549.6378752.9346788.7478932 1.7695981.7478932 3.4479388v3.6916695h-4.5563336l-.0171012-2.3698556c0-1.1307971.1088777-2.7569907-.7131208-3.6610614-.6601068-.6609071-1.6662282-.8043115-3.2925538-.8043115h-4.8493344v6.8352285h-4.5170009v-18.7922019h10.390128c2.3086639 0 4.0096647.0606492 5.4701086.9001029 1.4290914.8394539 2.2858624 2.064909 2.2858624 4.1609929zm7.2292534 13.7311061h-4.6093475v-18.7922019h4.6093475zm53.4743575 0h-6.401554l-8.562579-14.1046375v14.1046375h-9.199883l-1.758005-4.1916007h-9.384006l-1.705561 4.1916007h-5.285986c-2.195796 0-4.975883-.4829268-6.550335-2.0785124-1.587563-1.5955859-2.413551-3.7568534-2.413551-7.1741842 0-2.7870319.493655-5.3348678 2.435213-7.3481965 1.460443-1.4997939 3.747446-2.1913088 6.860437-2.1913088h4.37335v4.0266575h-4.281574c-1.648557 0-2.579433.2437305-3.476107 1.1132256-.770124.7912744-1.298552 2.2871008-1.298552 4.2567847 0 2.0133288.402449 3.4649434 1.242118 4.4132256.69545.7436619 1.95923.9692546 3.148334.9692546h2.028774l6.366782-14.7785812h6.768661l7.648233 17.7747681v-17.7747681h6.878109l7.940664 13.0877705v-13.0877705h4.627018zm-149.21208713 3.6911027h7.71834813l1.7403336-4.1740295h3.8962268l1.7357732 4.1740295h15.1864487v-3.1911715l1.3555562 3.2047752h7.8836598l1.3555565-3.2523876v3.2387839h37.7412403l-.0176711-6.8516661h.7302218c.5113263.0175712.6606769.0646171.6606769.9040707v5.9475954h19.5198963v-1.5950188c1.574452.8388869 4.023346 1.5950188 7.245785 1.5950188h8.212003l1.757435-4.1740295h3.896226l1.718672 4.1740295h15.824894v-3.9648746l2.396451 3.9648746h12.68112v-26.20955h-12.550011v3.0953798l-1.757435-3.0953798h-12.877784v3.0953798l-1.613785-3.0953798h-17.394785c-2.911767 0-5.471249.4041395-7.538786 1.530402v-1.530402h-12.0039125v1.530402c-1.3156535-1.1608381-3.1084308-1.530402-5.1018624-1.530402h-43.8549246l-2.9425489 6.7694778-3.0217846-6.7694778h-13.8132212v3.0953798l-1.5174478-3.0953798h-11.78045662l-5.47067855 12.4614395v13.7481105z"/><path d="m163.084321 61.4035554h-8.233095c-.821998 0-1.368097.030608-1.82812.3395226-.476554.3043798-.660107.756132-.660107 1.3524218 0 .7090863.402449 1.1914463.98788 1.4000343.476554.1649435.98845.2131227 1.740904.2131227l2.448324.0651837c2.470555.0606493 4.119683.4829268 5.125234 1.5128307.182983.1434044.293001.30438.41898.4653556zm0 12.392288c-1.097328 1.5955856-3.23555 2.4044315-6.130216 2.4044315h-8.723899v-4.0306254h8.688557c.861901 0 1.465004-.1127961 1.82812-.4653554.314662-.2907763.534127-.7130539.534127-1.2260221 0-.5475437-.219465-.9822913-.551799-1.2430264-.327773-.2868085-.804897-.4171761-1.591553-.4171761-4.241671-.1434044-9.533357.1303676-9.533357-5.8177946 0-2.7263827 1.740904-5.5961698 6.481361-5.5961698h8.998089l.00057-3.7398488h-8.360784c-2.522999 0-4.35568.6008244-5.653662 1.5349364v-1.5349364h-12.365888c-1.97747 0-4.298675.4874613-5.396573 1.5349364v-1.5349364h-22.082229v1.5349364c-1.757434-1.2605978-4.722785-1.5349364-6.091452-1.5349364h-14.5656747v1.5349364c-1.3903288-1.3388183-4.4822284-1.5349364-6.3667822-1.5349364h-16.3014477l-3.7303451 4.0141876-3.4937779-4.0141876h-24.3509896v26.2276881h23.8926769l3.8437829-4.077671 3.6208973 4.077671 14.727566.0130368v-6.1697871h1.4479028c1.9540987.0300413 4.2587724-.0481792 6.2921068-.922209v7.0783925h12.1475625v-6.8357954h.586002c.747893 0 .821428.030608.821428.7737032v6.0615253h36.902141c2.342866 0 4.791761-.59629 6.147887-1.6783407v1.6783407h11.705211c2.435783 0 4.814562-.3395224 6.624441-1.2090175zm-18.01955-7.5091722c.879572.9052044 1.350996 2.0479047 1.350996 3.9824459 0 4.0436619-2.540671 5.9311578-7.096434 5.9311578h-8.798575v-4.0306254h8.763232c.856771 0 1.464434-.1127961 1.845221-.4653554.310672-.2907763.533558-.7130539.533558-1.2260221 0-.5475437-.241127-.9822913-.551229-1.2430264-.345444-.2868085-.821998-.4171761-1.608654-.4171761-4.22457-.1434044-9.515116.1303676-9.515116-5.8177946 0-2.7263827 1.722662-5.5961698 6.458559-5.5961698h9.056233v4.0005839h-8.286679c-.821428 0-1.355556.0306081-1.809878.3395227-.494795.3043798-.678348.7561317-.678348 1.3524217 0 .7090864.420119 1.1914464.98845 1.4000344.476554.1649434.98845.2131227 1.758005.2131227l2.431792.0651836c2.452315.0595157 4.135644.4812266 5.158867 1.5116971zm-40.762455-1.1608383c-.604243.3565271-1.351566.3871351-2.230569.3871351h-5.4877795v-4.2216419h5.5624555c.804327 0 1.609224.0170044 2.155893.3395224.585431.30438.935436.8864995.935436 1.6908108 0 .8043112-.350005 1.4521812-.935436 1.8041736zm2.728213 2.3392478c1.005552.3689969 1.82755 1.0304708 2.212898 1.5780144.637875.9176744.730221 1.7741327.748463 3.4309344v3.7262454h-4.535242v-2.3517176c0-1.1307971.109448-2.8051702-.730222-3.6791997-.660107-.6733769-1.666228-.8343525-3.314216-.8343525h-4.8276724v6.8652698h-4.5392322v-18.7967366h10.4294606c2.287002 0 3.952661.1003263 5.435336.8870663 1.425671.8564583 2.322345 2.0297664 2.322345 4.1740295-.00057 3.0001547-2.012813 4.5311235-3.201918 5.0004466zm5.706676-10.0615424h15.077001v3.887221h-10.578242v3.4173307h10.320013v3.8350739h-10.320013v3.7398488l10.578242.0170044v3.9002578h-15.077001zm-30.4783548 8.6745449h-5.8377846v-4.7867571h5.8902284c1.6308857 0 2.7629861.6609068 2.7629861 2.3046719 0 1.6256269-1.0796566 2.4820852-2.8154299 2.4820852zm-10.3371141 8.4126761-6.9356827-7.6565442 6.9356827-7.4133802zm-17.9112421-2.2077466h-11.106669v-3.7398488h9.9175645v-3.8350739h-9.9175645v-3.4173307h11.3255645l4.9411109 5.4777051zm35.9136906-8.6870147c0 5.2215047-3.9178882 6.2995876-7.8665588 6.2995876h-5.6365602v6.3046893h-8.7803335l-5.5624552-6.222501-5.7807805 6.222501h-17.893571v-18.7967366h18.1689004l5.5578949 6.1612849 5.7460082-6.1612849h14.4345651c3.5849846 0 7.6128906.9868258 7.6128906 6.1924597z"/></g></g></g></g></svg>