<svg height="100" viewBox="0 0 160 100" width="160" xmlns="http://www.w3.org/2000/svg"><g fill="none"><path d="m0 0h160v100h-160z" fill="#fff"/><path d="m62.8074074 30.7339419-16.4888889 39.7366903h-10.7851852l-8.0888889-31.768383c-.5185185-1.9920768-.9333333-2.6211537-2.3851851-3.4599229-3.194979-1.5546835-6.5764445-2.6825077-10.0592593-3.3550768l.2074074-1.1533076h17.3185185c2.3409474.0106822 4.3234847 1.7478096 4.6666667 4.0889998l4.2518518 22.9613065 10.5777778-27.0503063zm42.2074076 26.7357679c0-10.4846149-14.3111113-11.1136918-14.2074076-15.7269223 0-1.4678461 1.3481482-2.9356922 4.3555556-3.3550768 3.4503959-.325724 6.924069.2897707 10.059259 1.7823846l1.762963-8.3876919c-3.044824-1.182062-6.279157-1.7862943-9.5407406-1.7823845-10.0592592 0-17.1111111 5.4519997-17.2148148 13.1057685-.1037037 5.7665382 5.0814815 8.9119226 8.9185185 10.7991533 3.8370371 1.8872307 5.2888889 3.2502306 5.2888889 4.927769 0 2.6211537-3.2148148 3.8793075-6.1185185 3.8793075-3.6489637.1019831-7.2605407-.7656677-10.4740741-2.5163076l-1.8666666 8.7022304c3.5909956 1.4572072 7.4349296 2.1702862 11.3037037 2.0969229 10.6814815.1048462 17.6296295-5.2423074 17.7333335-13.5251531zm26.548148 13.0009224h9.437037l-8.192593-39.7366903h-8.711111c-1.911729-.023155-3.641416 1.1426727-4.355555 2.9356922l-15.348148 36.8009981h10.681481l2.074074-5.9762305h13.066667zm-11.407407-14.0493839 5.392592-14.8881531 3.111111 14.8881531zm-42.8296301-25.6873064-8.4 39.7366903h-10.1629629l8.4-39.7366903z" fill="#1a1f71"/></g></svg>