<svg height="100" viewBox="0 0 160 100" width="160" xmlns="http://www.w3.org/2000/svg"><g fill="none" fill-rule="evenodd"><path d="m0 0h160v100h-160z" fill="#fff"/><g fill-rule="nonzero"><path d="m48.7990476 89.815834v-5.290672c.0785805-.8956342-.2233855-1.7822093-.8264866-2.4265728-.6031012-.6443635-1.446977-.982025-2.3097039-.924186-1.144139-.0473319-2.2318199.5184256-2.8819047 1.4990237-.5657814-.9855597-1.6106305-1.5630057-2.712381-1.4990237-.9666146-.043846-1.8898765.4198292-2.4580952 1.2344901v-1.0581344h-1.6104762v8.4650751h1.6104762v-4.8497826c-.0678095-.5877704.1213756-1.176191.5154644-1.6032439.3940887-.4270529.9515247-.6477056 1.5188213-.6012028 1.1866667 0 1.8647619.7936008 1.8647619 2.2044467v4.8497826h1.6104762v-4.8497826c-.0678095-.5877704.1213756-1.176191.5154644-1.6032439.3940887-.4270529.9515247-.6477056 1.5188213-.6012028 1.1866667 0 1.8647619.7936008 1.8647619 2.2044467v4.8497826zm26.4457143-8.3768973h-2.9666667v-2.557158h-1.6104762v2.557158h-1.695238v1.4990238h1.695238v3.9680039c0 1.939913.6780953 3.0862253 2.712381 3.0862253.7719743-.0158745 1.5285235-.2277695 2.2038095-.6172451l-.5085714-1.4990237c-.4569366.2972409-.9868755.4503786-1.5257143.4408893-.3608724.0309562-.7155838-.1111866-.963237-.3859959-.2476532-.2748094-.3611445-.6522096-.3081916-1.0248499v-4.0561818h2.9666667zm15.0876191-.2645335c-.8919009-.0191431-1.7282177.4493297-2.2038096 1.2344901v-1.0581344h-1.6104762v8.4650751h1.6104762v-4.7616048c0-1.4108458.6780953-2.2926245 1.78-2.2926245.3725065.0155063.7421438.0746653 1.1019048.1763558l.5085714-1.5872016c-.3885284-.101849-.7862664-.1609586-1.1866666-.1763557zm-22.8009524.8817786c-.9923243-.6312698-2.1438338-.9384278-3.3057143-.8817786-2.0342857 0-3.3057143.9699565-3.3057143 2.6453359 0 1.4108459.932381 2.2044466 2.712381 2.4689802l.847619.0881779c.932381.1763557 1.5257143.5290672 1.5257143.9699565 0 .6172451-.6780953 1.0581344-1.9495238 1.0581344-.9722895.0210655-1.9246267-.2885336-2.712381-.8817786l-.847619 1.3226679c1.0297393.708313 2.2408881 1.0770815 3.4752381 1.0581344 2.3733333 0 3.6447619-1.1463122 3.6447619-2.7335138s-1.0171429-2.2044466-2.7971429-2.4689802l-.847619-.0881779c-.7628572-.0881779-1.4409524-.3527115-1.4409524-.8817787 0-.5290671.6780952-1.0581343 1.6104762-1.0581343.886806.0402378 1.754542.2809595 2.5428571.7054229zm24.6657143 3.5271146c-.0701449 1.1901855.3537929 2.3545052 1.1642976 3.1976737.8105046.8431685 1.9297193 1.2841913 3.0737976 1.2112196 1.0426912.0570316 2.0689225-.2883649 2.8819048-.9699565l-.8476191-1.322668c-.5987907.5079921-1.346409.7879813-2.1190476.7936008-1.4150419-.1164682-2.5062572-1.3450225-2.5062572-2.8216917s1.0912153-2.7052235 2.5062572-2.8216917c.7726386.0056195 1.5202569.2856087 2.1190476.7936008l.8476191-1.322668c-.8129823-.6815916-1.8392136-1.0269881-2.8819048-.9699565-1.130001-.1410845-2.2612521.2525343-3.0822703 1.0724758-.8210182.8199416-1.2452277 1.9797436-1.1558249 3.1600617zm-11.4428572-4.4088932c-2.3733333 0-3.9838095 1.7635573-3.9838095 4.4088932-.0734102 1.1755534.3375459 2.3280587 1.1301416 3.1694239.7925957.8413651 1.8919263 1.2920764 3.0231917 1.2394694 1.1959963.0258463 2.3638244-.3791178 3.3057143-1.1463123l-.847619-1.2344901c-.6808903.5489164-1.5122317.8577896-2.3733334.8817787-1.2482742.0494497-2.3211902-.9127531-2.4580952-2.2044467h6.0180952v-.7054229c0-2.6453359-1.5257143-4.4088932-3.8142857-4.4088932zm0 1.5872015c.5547184-.026596 1.095612.1848617 1.4962035.584928.4005916.4000662.6257564.9536623.622872 1.5313408h-4.4076469c.0772452-1.2382743 1.0974198-2.1816417 2.2885714-2.1162688zm-21.9533333 2.8216917v-4.2325375h-1.6104762v1.0581344c-.6295472-.8331766-1.6105191-1.2940502-2.6276191-1.2344901-2.3406353 0-4.2380952 1.9739287-4.2380952 4.4088932s1.8974599 4.4088933 4.2380952 4.4088933c1.0171.05956 1.9980719-.4013135 2.6276191-1.2344901v1.0581344h1.6104762zm-6.6114286 0c.092111-1.4340959 1.2680898-2.5292874 2.6483823-2.4664438 1.3802925.0628435 2.4598019 1.2607254 2.4311267 2.6977095-.0286751 1.4369842-1.1550415 2.5872282-2.5366518 2.590426-.7097279.0179856-1.3931375-.2797922-1.8786935-.8185914s-.7271579-1.2674641-.6641637-2.0031003zm62.6390472-4.4088932c-.8919-.0191431-1.728217.4493297-2.203809 1.2344901v-1.0581344h-1.610476v8.4650751h1.610476v-4.7616048c0-1.4108458.678095-2.2926245 1.78-2.2926245.372506.0155063.742144.0746653 1.101905.1763558l.508571-1.5872016c-.388528-.101849-.786266-.1609586-1.186667-.1763557zm-6.272381 4.4088932v-4.2325375h-1.610476v1.0581344c-.629547-.8331766-1.610519-1.2940502-2.627619-1.2344901-2.340635 0-4.238095 1.9739287-4.238095 4.4088932s1.89746 4.4088933 4.238095 4.4088933c1.0171.05956 1.998072-.4013135 2.627619-1.2344901v1.0581344h1.610476zm-6.526666 0c.092111-1.4340959 1.26809-2.5292874 2.648382-2.4664438 1.380293.0628435 2.459802 1.2607254 2.431127 2.6977095-.028675 1.4369842-1.155042 2.5872282-2.536652 2.590426-1.610476.0881779-2.542857-1.2344901-2.542857-2.8216917zm22.970476 0v-7.5832964h-1.610476v4.4088933c-.629547-.8331766-1.610519-1.2940502-2.627619-1.2344901-2.340636 0-4.238095 1.9739287-4.238095 4.4088932s1.897459 4.4088933 4.238095 4.4088933c1.0171.05956 1.998072-.4013135 2.627619-1.2344901v1.0581344h1.610476zm-6.611429 0c.092111-1.4340959 1.26809-2.5292874 2.648383-2.4664438 1.380292.0628435 2.459802 1.2607254 2.431126 2.6977095-.028675 1.4369842-1.155041 2.5872282-2.536651 2.590426-.709728.0179856-1.393138-.2797922-1.878694-.8185914s-.727158-1.2674641-.664164-2.0031003z" fill="#000"/><g transform="translate(31 12)"><path d="m34 7h29.40678v48.071233h-29.40678z" fill="#ff5f00"/><path d="m37.7573729 30.5753512c.002562-9.368813 4.2791432-18.2222811 11.6101695-24.03561641-10.506307-8.27873322-25.1661099-8.74046867-36.1703978-1.13924827-11.00428798 7.60122038-15.7909222 21.49559738-11.81014958 34.28184848 3.98077261 12.7862512 15.80210498 21.4873418 29.16698808 21.4683587 6.8269638.0048156 13.455786-2.2994098 18.8135593-6.539726-7.3310263-5.8133354-11.6076075-14.6668035-11.6101695-24.0356165z" fill="#eb001b"/><path d="m98.3220339 30.5415672c-.0129807 11.6906831-6.6765497 22.350606-17.1671956 27.4629082-10.4906458 5.1123021-22.9717748 3.7819745-32.1548383-3.4272918 7.3329473-5.8117677 11.6099423-14.6662657 11.6099423-24.0356164s-4.276995-18.2238487-11.6099423-24.03561644c9.1830635-7.20926626 21.6641925-8.5395939 32.1548383-3.42729175 10.4906459 5.11230216 17.1542149 15.77222509 17.1671956 27.46290819z" fill="#f79e1b"/></g></g></g></svg>