<svg height="25" viewBox="0 0 40 25" width="40" xmlns="http://www.w3.org/2000/svg"><g fill="none" fill-rule="evenodd"><path d="m0 0h40v25h-40z"/><g fill-rule="nonzero"><path d="m13.7875 22.6125v-1.5c.0176904-.2545384-.0750264-.5043774-.2544867-.6857519-.1794603-.1813746-.4283015-.2767369-.6830133-.2617481-.3365415-.022063-.6584176.140791-.84.425-.165551-.2757352-.4686804-.4388111-.79-.425-.2797707-.0141433-.5461096.1209286-.7.355v-.295h-.52v2.3875h.525v-1.3225c-.0235558-.1656659.028547-.3331516.1419244-.4562193.1133773-.1230677.2760377-.1887011.4430756-.1787807.345 0 .52.225.52.63v1.3275h.525v-1.3225c-.0216826-.1652893.0310678-.3316816.1440204-.4542883s.2744704-.188796.4409796-.1807117c.355 0 .525.225.525.63v1.3275zm2.925-1.1925v-1.1925h-.525v.29c-.1788838-.2308449-.4581716-.3611792-.75-.35-.6903559 0-1.25.5596441-1.25 1.25s.5596441 1.25 1.25 1.25c.2918284.0111792.5711162-.1191551.75-.35v.29h.52zm-1.9325 0c.0231238-.3923328.3556105-.6942229.7483476-.6794819.3927372.0147411.701658.3407057.6953064.7336681s-.3256456.708773-.718654.7108138c-.2012112.004719-.3950931-.0755848-.5340402-.2211937-.138947-.1456089-.2100897-.3430364-.1959598-.5438063zm13.0425-1.25c.1711937-.0004424.340898.0318014.5.095.1518653.0608171.2903159.1508525.4075.265.1156694.113117.2074795.2482819.27.3975.1306145.3205382.1306145.6794618 0 1-.0624605.1492506-.1542783.2844268-.27.3975-.1171841.1141475-.2556347.2041829-.4075.265-.3296602.1280972-.6953398.1280972-1.025 0-.1511569-.0607567-.2887996-.1508192-.405-.265-.1145641-.1135163-.2054838-.2486213-.2675-.3975-.130349-.3205902-.130349-.6794098 0-1 .0620162-.1488787.1529359-.2839837.2675-.3975.1162004-.1141808.2538431-.2042433.405-.265.1648192-.0683181.3415839-.1031611.52-.1025zm0 .5c-.1018169-.0013888-.2029095.0173006-.2975.055-.0890957.0357225-.1699252.0893252-.2375.1575-.068937.0717695-.1225271.1568332-.1575.25-.0763735.1996107-.0763735.4203893 0 .62.0349097.0931982.0885075.178274.1575.25.0675294.0682299.1483711.1218407.2375.1575.1904595.0745786.4020405.0745786.5925 0 .0933906-.0345206.1785419-.0881659.25-.1575.0691048-.0716381.1227181-.1567385.1575-.25.0763735-.1996107.0763735-.4203893 0-.62-.0347819-.0932615-.0883952-.1783619-.1575-.25-.0714581-.0693341-.1566094-.1229794-.25-.1575-.0943083-.0431732-.1963234-.0669767-.3-.07zm-8.285.75c0-.75-.465-1.25-1.1325-1.25-.6903559.009665-1.2421649.5771441-1.2324999 1.2675s.577144 1.2421649 1.2674999 1.2325c.3559161.0121605.7038608-.1070839.9775-.335l-.25-.385c-.1974095.1583197-.4419745.2462927-.695.25-.3574084.0307375-.6743549-.2285823-.715-.585h1.7725c.0075-.0625.0075-.125.0075-.195zm-1.7775-.21c.0200665-.3298125.2971588-.5848258.6275-.5775.1571508-.0033504.3091925.0558824.4226597.164661.1134673.1087785.1790598.2581868.1823403.415339zm3.965-.375c-.2283077-.1314611-.4865655-.2020516-.75-.205-.285 0-.455.105-.455.28s.18.205.405.235l.25.035c.52.075.835.295.835.715s-.4.78-1.0875.78c-.3684702.0098015-.7303672-.0988552-1.0325-.31l.25-.405c.2294258.1702074.5094506.2582655.795.25.355 0 .545-.105.545-.29 0-.135-.135-.21-.42-.25l-.25-.035c-.535-.075-.825-.315-.825-.705 0-.475.39-.765 1-.765.3414102-.0114388.6789332.075328.9725.25zm2.5-.135h-.8475v1.0775c0 .25.085.4.345.4.1622827-.0053743.3205508-.0518226.46-.135l.15.445c-.1949231.1216445-.4202354.1857718-.65.185-.615 0-.83-.33-.83-.885v-1.0875h-.485v-.475h.485v-.725h.525v.725h.8475zm1.7975-.535c.1261306.0004874.2512555.0224688.37.065l-.16.5c-.103328-.0411969-.2137734-.0615869-.325-.06-.34 0-.5.22-.5.615v1.3375h-.52v-2.3875h.515v.29c.1299957-.2232992.3717293-.3575956.63-.35zm3.595 2.1c.0325032-.0003982.0647722.0055461.095.0175.0287107.011716.0549911.0286711.0775.05.0219673.0215553.0397657.0469816.0525.075.0255903.0590118.0255903.1259882 0 .185-.0127343.0280184-.0305327.0534447-.0525.075-.0225089.0213289-.0487893.038284-.0775.05-.0299294.0132063-.0622864.0200183-.095.02-.0967376-.0007292-.1843718-.0572046-.225-.145-.025294-.0590729-.025294-.1259271 0-.185.0127343-.0280184.0305327-.0534447.0525-.075.0225089-.0213289.0487893-.038284.0775-.05.0263106-.0104632.0542074-.0163807.0825-.0175zm0 .4225c.0249524.0001516.0496563-.0049596.0725-.015.0215091-.0096031.0410161-.0231732.0575-.04.0430479-.0433553.0619143-.1051685.0504135-.165173-.0115009-.0600045-.0518857-.1104612-.1079135-.134827-.0228662-.0099696-.047555-.0150777-.0725-.015-.0249234.0001317-.0495705.0052311-.0725.015-.0224613.00921-.0428595.0228088-.06.04-.0648242.0707268-.0648242.1792732 0 .25.034971.0354091.0827334.055235.1325.055zm.015-.2975c.0233378-.0011318.0463352.0059443.065.02.0155256.012849.0239029.0323959.0225.0525.0007257.0167888-.0056224.0331125-.0175.045-.0144905.0131615-.0329758.0210838-.0525.0225l.0725.0825h-.0575l-.0675-.0825h-.0225v.0825h-.0475v-.23zm-.055.0425v.06h.055c.0097871.002918.0202129.002918.03 0 .0035657-.0070762.0035657-.0154238 0-.0225.0035657-.0070762.0035657-.0154238 0-.0225-.0097871-.002918-.0202129-.002918-.03 0z" fill="#000"/><g transform="translate(7.5 3)"><path d="m9.053699 1.662534h6.688356v12.019932h-6.688356z" fill="#7673c0"/><path d="m9.47835616 7.67356164c-.00250067-2.34591602 1.07413804-4.56261731 2.91952054-6.01102739-3.13401711-2.46300271-7.63459138-2.10424506-10.33884016.8241477-2.70424878 2.92839276-2.70424878 7.44324334 0 10.37163615 2.70424878 2.9283927 7.20482305 3.2871504 10.33884016.8241477-1.8447954-1.4479503-2.92136836-3.6637332-2.91952054-6.00890416z" fill="#eb001b"/><g fill="#00a1df"><path d="m24.0356164 12.597344v-.3888889h.0997946v-.0833333h-.2526713v.0833333h.0997945v.4027778zm.4904795 0v-.4861111h-.0764384l-.089178.3472222-.0891781-.3472222h-.0785617v.4861111h.0552055v-.3645833l.0828082.3159722h.0573288l.0828082-.3159722v.3680555z"/><path d="m24.7639041 7.67356164c-.0007069 2.92581996-1.6714813 5.59454796-4.3030672 6.87328896-2.6315858 1.2787411-5.7622337.9431218-8.0629602-.8643848 1.8439905-1.4491796 2.9206445-3.6646679 2.9206445-6.0099658 0-2.34529789-1.076654-4.56078621-2.9206445-6.00996575 2.3007074-1.80880644 5.4322382-2.14518672 8.0646193-.86627884 2.632381 1.27890787 4.3034632 3.94857478 4.3035314 6.87518295z"/></g></g></g></g></svg>